Patient4_TMGait_0pt7_01_left_23_GRF.mot
version=1
nRows=39
nColumns=19
inDegrees=no
endheader
time	F1x	F1y	F1z	M1x	M1y	M1z	F2x	F2y	F2z	M2x	M2y	M2z	EC1x	EC1y	EC1z	EC2x	EC2y	EC2z
26.46	-9.1414	21.0149	-15.9461	-2.2608	7.7696	35.995	-26.6223	683.5319	-87.3438	271.5202	91.8699	702.4103	-0.0592	0.0182	-0.0073	-0.0462	0.0165	0.9585
26.4716	-6.2053	15.1594	-10.7934	-1.8554	5.1529	25.3241	-23.6528	689.873	-77.8044	271.7169	83.8087	709.7165	-0.0592	0.0182	-0.0073	-0.0462	0.0165	0.9585
26.4831	-3.7872	10.2582	-6.4376	-1.5332	2.9484	16.4015	-21.0479	698.1327	-69.688	272.937	76.7848	717.8651	-0.0592	0.0182	-0.0073	-0.0462	0.0165	0.9585
26.4947	-1.9683	6.564	-3.1059	-1.3044	1.2668	9.6619	-18.8972	708.1949	-63.4492	275.2589	71.1644	726.6193	-0.0592	0.0182	-0.0073	-0.0462	0.0165	0.9585
26.5063	-0.76468	4.0852	-0.81252	-1.1702	0.10815	5.1112	-17.1266	719.7415	-59.0922	278.5715	66.9498	735.7427	-0.0592	0.0182	-0.0073	-0.0462	0.0165	0.9585
26.5179	-0.038953	2.6066	0.61754	-1.1037	-0.62055	2.3542	-15.5801	732.2584	-56.3281	282.6256	63.8927	744.8876	-0.0592	0.0182	-0.0073	-0.0462	0.0165	0.9585
26.5294	0.27484	1.8903	1.3625	-1.0834	-1.012	0.99046	-14.0741	745.0997	-54.7598	287.0873	61.6552	753.6067	-0.0592	0.0182	-0.0073	-0.0462	0.0165	0.9585
26.541	0.32855	1.6421	1.6544	-1.0745	-1.188	0.51241	-12.4357	757.5025	-53.9897	291.5722	59.8965	761.3406	-0.0592	0.0182	-0.0073	-0.0462	0.0165	0.9585
26.5526	0.1686	1.6287	1.6512	-1.0494	-1.2359	0.54918	-10.5692	768.6603	-53.7103	295.6788	58.3717	767.4986	-0.0592	0.0182	-0.0073	-0.0462	0.0165	0.9585
26.5641	-0.096249	1.6182	1.5117	-0.96936	-1.2409	0.69784	-8.4423	777.7244	-53.7324	299.0033	56.9504	771.4192	-0.0592	0.0182	-0.0073	-0.0462	0.0165	0.9585
26.5757	-0.45684	1.4427	1.3258	-0.80211	-1.2543	0.72188	-6.0679	783.9672	-53.9584	301.2041	55.5858	772.5515	-0.0592	0.0182	-0.0073	-0.0462	0.0165	0.9585
26.5873	-0.82467	0.92556	1.158	-0.50974	-1.2969	0.33632	-3.4729	786.8431	-54.3408	302.0365	54.2674	770.4656	-0.0592	0.0182	-0.0073	-0.0462	0.0165	0.9585
26.5989	-1.205	-0.014942	1.0378	-0.072693	-1.3832	-0.55972	-0.7163	786.0867	-54.8441	301.3842	52.993	764.9866	-0.0592	0.0182	-0.0073	-0.0462	0.0165	0.9585
26.6104	-1.4713	-1.4324	0.9647	0.51889	-1.4691	-2.0716	2.1726	781.7098	-55.4313	299.2591	51.7511	756.1761	-0.0592	0.0182	-0.0073	-0.0462	0.0165	0.9585
26.622	-1.5739	-3.2219	0.92946	1.229	-1.5105	-4.0634	5.1311	774.0452	-56.0901	295.8074	50.5555	744.3794	-0.0592	0.0182	-0.0073	-0.0462	0.0165	0.9585
26.6336	-1.3159	-5.1523	0.89346	1.9695	-1.3971	-6.2932	8.1425	763.759	-56.8116	291.3114	49.4141	730.2237	-0.0592	0.0182	-0.0073	-0.0462	0.0165	0.9585
26.6451	-0.55155	-6.7348	0.8085	2.5621	-1.012	-8.1616	11.1612	751.796	-57.6283	286.1578	48.3804	714.6013	-0.0592	0.0182	-0.0073	-0.0462	0.0165	0.9585
26.6567	0.9861	-7.2172	0.59346	2.7242	-0.17499	-8.821	14.1722	739.2712	-58.5631	280.7972	47.4935	698.5435	-0.0592	0.0182	-0.0073	-0.0462	0.0165	0.9585
26.6683	3.4832	-5.4832	0.15919	2.0404	1.2917	-6.9483	17.1476	727.3368	-59.6308	275.6882	46.7799	683.1237	-0.0592	0.0182	-0.0073	-0.0462	0.0165	0.9585
26.6799	7.1579	-0.075908	-0.60107	-0.037084	3.579	-0.88038	20.1124	717.0304	-60.7859	271.2451	46.1961	669.2848	-0.0592	0.0182	-0.0073	-0.0462	0.0165	0.9585
26.6914	11.9765	10.749	-1.7798	-4.158	6.7784	11.444	23.1022	709.1358	-61.9491	267.7774	45.6631	657.7461	-0.0592	0.0182	-0.0073	-0.0462	0.0165	0.9585
26.703	17.7092	28.7859	-3.4354	-10.9925	10.8468	32.1167	26.192	703.9401	-63.0054	265.4033	45.0508	648.7675	-0.0592	0.0182	-0.0073	-0.0462	0.0165	0.9585
26.7146	23.5743	55.5075	-5.5281	-21.0818	15.4365	62.9249	29.4487	701.0949	-63.8134	263.9899	44.2044	642.0555	-0.0592	0.0182	-0.0073	-0.0462	0.0165	0.9585
26.7261	28.1931	91.3287	-7.8748	-34.5722	19.7964	104.4213	32.9227	699.4939	-64.2029	263.1173	42.9491	636.6133	-0.0592	0.0182	-0.0073	-0.0462	0.0165	0.9585
26.7377	29.3542	134.8074	-10.0179	-50.9033	22.5769	155.0753	36.5986	697.3989	-63.9667	262.1256	41.1004	630.917	-0.0592	0.0182	-0.0073	-0.0462	0.0165	0.9585
26.7493	25.2131	182.6366	-11.2205	-68.8028	22.2654	211.1884	40.3859	692.6785	-62.904	260.2125	38.5126	623.0956	-0.0592	0.0182	-0.0073	-0.0462	0.0165	0.9585
26.7609	16.361	230.9169	-10.6213	-86.7367	18.0971	268.3193	44.0949	683.2687	-60.8482	256.5956	35.1156	611.3642	-0.0592	0.0182	-0.0073	-0.0462	0.0165	0.9585
26.7724	5.6452	275.5363	-7.65	-103.13	10.4825	321.4589	47.4859	667.4691	-57.7435	250.6264	30.9639	594.255	-0.0592	0.0182	-0.0073	-0.0462	0.0165	0.9585
26.784	-4.6264	312.8225	-2.7016	-116.6574	0.78785	365.9525	50.299	644.1478	-53.6547	241.8644	26.2227	570.8246	-0.0592	0.0182	-0.0073	-0.0462	0.0165	0.9585
26.7956	-12.8609	341.4072	3.2266	-126.8877	-9.192	399.89	52.2855	612.8252	-48.7492	230.1174	21.1447	540.7064	-0.0592	0.0182	-0.0073	-0.0462	0.0165	0.9585
26.8071	-18.7047	362.5537	8.981	-134.3699	-17.977	424.6978	53.1944	573.8135	-43.2237	215.4901	16.0032	504.2509	-0.0592	0.0182	-0.0073	-0.0462	0.0165	0.9585
26.8187	-22.4433	379.1041	13.9371	-140.2165	-24.9406	443.654	52.8794	528.1172	-37.325	198.3506	11.0747	462.3926	-0.0592	0.0182	-0.0073	-0.0462	0.0165	0.9585
26.8303	-24.7952	394.2923	17.5501	-145.6666	-29.7497	460.578	51.2712	477.2487	-31.2602	179.2621	6.554	416.4924	-0.0592	0.0182	-0.0073	-0.0462	0.0165	0.9585
26.8419	-26.2592	410.8543	19.7703	-151.7457	-32.5519	478.5407	48.4185	423.0404	-25.2293	158.9114	2.5901	368.1448	-0.0592	0.0182	-0.0073	-0.0462	0.0165	0.9585
26.8534	-27.1845	430.88	20.8363	-159.1997	-33.7682	499.9186	44.4122	367.4707	-19.445	138.0419	-0.68524	319.0448	-0.0592	0.0182	-0.0073	-0.0462	0.0165	0.9585
26.865	-27.6059	455.7189	21.178	-168.4805	-33.9365	526.1731	39.4652	312.5407	-14.1196	117.4053	-3.1876	270.8667	-0.0592	0.0182	-0.0073	-0.0462	0.0165	0.9585
26.8766	-27.6566	485.787	21.5653	-179.6522	-33.9719	557.7794	33.8474	260.0999	-9.4984	97.6954	-4.8366	225.1482	-0.0592	0.0182	-0.0073	-0.0462	0.0165	0.9585
26.8881	-27.4839	520.2119	22.7549	-192.319	-34.7934	593.7388	27.9329	211.6533	-5.7207	79.4843	-5.6773	183.0948	-0.0592	0.0182	-0.0073	-0.0462	0.0165	0.9585
26.8997	-27.3544	557.6253	25.3766	-205.9016	-37.1911	632.5805	22.0795	168.3117	-2.8699	63.1877	-5.7874	145.6003	-0.0592	0.0182	-0.0073	-0.0462	0.0165	0.9585
